<svg xmlns="http://www.w3.org/2000/svg" viewBox="0 0 509 118" role="img" aria-label="hannah"><path fill="#080808" fill-rule="evenodd" d="M414 6 L421 6 L421 7 L424 7 L424 8 L425 8 L425 9 L426 9 L426 11 L427 11 L427 16 L426 16 L426 18 L425 18 L425 21 L424 21 L424 25 L423 25 L423 29 L422 29 L422 32 L421 32 L421 36 L420 36 L420 39 L419 39 L419 41 L418 41 L418 45 L417 45 L417 49 L416 49 L416 52 L415 52 L415 56 L414 56 L414 58 L413 58 L413 60 L414 60 L414 59 L415 59 L415 58 L416 58 L416 56 L417 56 L417 55 L418 55 L418 54 L419 54 L419 53 L420 53 L420 52 L421 52 L421 51 L422 51 L422 50 L423 50 L423 49 L424 49 L424 48 L426 48 L426 47 L428 47 L428 46 L436 46 L436 47 L439 47 L439 48 L441 48 L441 49 L442 49 L442 50 L443 50 L443 52 L444 52 L444 56 L445 56 L445 72 L446 72 L446 79 L447 79 L447 81 L448 81 L448 82 L449 82 L449 81 L452 81 L452 80 L455 80 L455 79 L457 79 L457 78 L459 78 L459 77 L460 77 L460 76 L462 76 L462 75 L464 75 L464 74 L466 74 L466 73 L469 73 L469 72 L471 72 L471 71 L472 71 L472 70 L474 70 L474 69 L476 69 L476 68 L478 68 L478 67 L479 67 L479 66 L481 66 L481 65 L483 65 L483 64 L485 64 L485 63 L487 63 L487 62 L489 62 L489 64 L487 64 L487 65 L485 65 L485 66 L488 66 L488 65 L490 65 L490 64 L491 64 L491 63 L493 63 L493 62 L495 62 L495 61 L497 61 L497 60 L498 60 L498 59 L500 59 L500 58 L503 58 L503 57 L505 57 L505 58 L504 58 L504 59 L502 59 L502 62 L501 62 L501 63 L499 63 L499 64 L497 64 L497 65 L496 65 L496 66 L495 66 L495 67 L494 67 L494 68 L493 68 L493 69 L495 69 L495 68 L497 68 L497 70 L496 70 L496 71 L495 71 L495 72 L493 72 L493 73 L492 73 L492 74 L490 74 L490 75 L488 75 L488 76 L487 76 L487 77 L485 77 L485 78 L483 78 L483 79 L482 79 L482 80 L480 80 L480 81 L478 81 L478 82 L476 82 L476 83 L474 83 L474 84 L472 84 L472 85 L471 85 L471 86 L469 86 L469 87 L467 87 L467 88 L466 88 L466 89 L464 89 L464 90 L462 90 L462 91 L460 91 L460 92 L457 92 L457 93 L443 93 L443 92 L440 92 L440 91 L438 91 L438 90 L437 90 L437 89 L436 89 L436 88 L435 88 L435 87 L434 87 L434 86 L433 86 L433 85 L432 85 L432 83 L431 83 L431 81 L430 81 L430 78 L429 78 L429 72 L428 72 L428 65 L427 65 L427 66 L426 66 L426 68 L425 68 L425 69 L424 69 L424 70 L423 70 L423 71 L422 71 L422 73 L421 73 L421 74 L420 74 L420 75 L419 75 L419 77 L418 77 L418 78 L417 78 L417 79 L416 79 L416 81 L415 81 L415 83 L414 83 L414 84 L413 84 L413 86 L412 86 L412 87 L411 87 L411 89 L410 89 L410 90 L409 90 L409 92 L408 92 L408 94 L407 94 L407 96 L406 96 L406 97 L405 97 L405 98 L404 98 L404 99 L400 99 L400 100 L396 100 L396 98 L395 98 L395 99 L392 99 L392 98 L391 98 L391 97 L390 97 L390 95 L389 95 L389 89 L390 89 L390 85 L391 85 L391 84 L389 84 L389 85 L388 85 L388 86 L387 86 L387 87 L382 87 L382 88 L379 88 L379 87 L377 87 L377 86 L374 86 L374 85 L373 85 L373 84 L372 84 L372 83 L371 83 L371 81 L370 81 L370 79 L369 79 L369 75 L367 75 L367 76 L366 76 L366 77 L365 77 L365 78 L363 78 L363 79 L362 79 L362 80 L360 80 L360 81 L359 81 L359 82 L356 82 L356 83 L354 83 L354 84 L351 84 L351 85 L345 85 L345 84 L341 84 L341 83 L338 83 L338 82 L337 82 L337 81 L336 81 L336 80 L335 80 L335 79 L334 79 L334 77 L333 77 L333 68 L334 68 L334 64 L335 64 L335 62 L336 62 L336 61 L338 61 L338 59 L339 59 L339 57 L338 57 L338 56 L339 56 L339 55 L340 55 L340 53 L341 53 L341 52 L342 52 L342 53 L343 53 L343 52 L342 52 L342 51 L343 51 L343 49 L344 49 L344 48 L345 48 L345 47 L346 47 L346 46 L347 46 L347 45 L349 45 L349 44 L350 44 L350 43 L351 43 L351 42 L352 42 L352 41 L354 41 L354 40 L356 40 L356 39 L357 39 L357 38 L360 38 L360 37 L369 37 L369 38 L372 38 L372 39 L373 39 L373 40 L377 40 L377 41 L378 41 L378 42 L379 42 L379 44 L380 44 L380 45 L381 45 L381 49 L380 49 L380 51 L379 51 L379 52 L382 52 L382 53 L384 53 L384 55 L385 55 L385 59 L384 59 L384 60 L385 60 L385 65 L384 65 L384 68 L385 68 L385 74 L386 74 L386 77 L387 77 L387 79 L389 79 L389 80 L390 80 L390 81 L391 81 L391 78 L392 78 L392 73 L393 73 L393 69 L394 69 L394 65 L395 65 L395 61 L396 61 L396 58 L397 58 L397 54 L398 54 L398 50 L399 50 L399 47 L400 47 L400 44 L401 44 L401 42 L402 42 L402 43 L403 43 L403 41 L402 41 L402 37 L403 37 L403 34 L404 34 L404 32 L405 32 L405 27 L406 27 L406 24 L407 24 L407 21 L408 21 L408 19 L409 19 L409 16 L410 16 L410 11 L411 11 L411 9 L412 9 L412 8 L413 8 L413 7 L414 7 Z M115 8 L117 8 L117 9 L121 9 L121 10 L123 10 L123 11 L126 11 L126 12 L128 12 L128 14 L129 14 L129 20 L128 20 L128 23 L127 23 L127 26 L126 26 L126 28 L125 28 L125 31 L124 31 L124 34 L123 34 L123 36 L122 36 L122 39 L121 39 L121 42 L120 42 L120 44 L121 44 L121 45 L120 45 L120 48 L119 48 L119 50 L118 50 L118 53 L117 53 L117 56 L116 56 L116 59 L115 59 L115 62 L114 62 L114 65 L113 65 L113 69 L112 69 L112 72 L111 72 L111 75 L110 75 L110 79 L109 79 L109 84 L108 84 L108 87 L107 87 L107 91 L106 91 L106 95 L105 95 L105 98 L104 98 L104 100 L103 100 L103 105 L102 105 L102 107 L100 107 L100 108 L98 108 L98 107 L97 107 L97 108 L95 108 L95 109 L94 109 L94 108 L89 108 L89 107 L88 107 L88 106 L87 106 L87 104 L86 104 L86 99 L87 99 L87 93 L88 93 L88 90 L89 90 L89 86 L90 86 L90 82 L91 82 L91 78 L92 78 L92 75 L93 75 L93 71 L94 71 L94 67 L95 67 L95 64 L96 64 L96 60 L97 60 L97 56 L94 56 L94 57 L90 57 L90 58 L86 58 L86 59 L83 59 L83 60 L80 60 L80 61 L77 61 L77 62 L74 62 L74 63 L70 63 L70 64 L67 64 L67 65 L64 65 L64 66 L61 66 L61 67 L59 67 L59 68 L56 68 L56 69 L52 69 L52 70 L51 70 L51 71 L50 71 L50 75 L49 75 L49 81 L48 81 L48 84 L47 84 L47 89 L46 89 L46 93 L45 93 L45 98 L44 98 L44 102 L43 102 L43 104 L42 104 L42 105 L40 105 L40 107 L39 107 L39 111 L37 111 L37 112 L36 112 L36 111 L34 111 L34 112 L33 112 L33 113 L27 113 L27 112 L24 112 L24 111 L23 111 L23 110 L22 110 L22 101 L23 101 L23 96 L24 96 L24 92 L25 92 L25 88 L26 88 L26 84 L27 84 L27 82 L28 82 L28 79 L29 79 L29 78 L25 78 L25 79 L23 79 L23 80 L21 80 L21 81 L19 81 L19 82 L17 82 L17 83 L14 83 L14 84 L12 84 L12 83 L8 83 L8 82 L5 82 L5 81 L4 81 L4 80 L3 80 L3 77 L5 77 L5 76 L6 76 L6 75 L7 75 L7 74 L10 74 L10 73 L12 73 L12 72 L14 72 L14 71 L16 71 L16 70 L18 70 L18 69 L21 69 L21 68 L23 68 L23 67 L25 67 L25 66 L27 66 L27 65 L30 65 L30 64 L32 64 L32 63 L33 63 L33 60 L34 60 L34 57 L35 57 L35 54 L36 54 L36 50 L37 50 L37 47 L38 47 L38 44 L39 44 L39 41 L40 41 L40 39 L41 39 L41 42 L42 42 L42 40 L43 40 L43 35 L42 35 L42 33 L43 33 L43 34 L44 34 L44 32 L43 32 L43 30 L44 30 L44 26 L45 26 L45 24 L46 24 L46 23 L47 23 L47 21 L48 21 L48 19 L47 19 L47 18 L48 18 L48 14 L49 14 L49 11 L50 11 L50 10 L55 10 L55 11 L56 11 L56 12 L58 12 L58 11 L60 11 L60 12 L61 12 L61 13 L63 13 L63 12 L64 12 L64 13 L65 13 L65 15 L66 15 L66 18 L65 18 L65 21 L64 21 L64 25 L63 25 L63 28 L62 28 L62 32 L61 32 L61 35 L60 35 L60 39 L59 39 L59 42 L58 42 L58 45 L57 45 L57 48 L56 48 L56 53 L55 53 L55 56 L56 56 L56 55 L59 55 L59 54 L63 54 L63 53 L67 53 L67 52 L70 52 L70 51 L73 51 L73 50 L77 50 L77 49 L81 49 L81 48 L85 48 L85 47 L87 47 L87 46 L91 46 L91 45 L94 45 L94 44 L98 44 L98 43 L102 43 L102 41 L103 41 L103 38 L104 38 L104 35 L105 35 L105 39 L106 39 L106 36 L107 36 L107 32 L106 32 L106 29 L107 29 L107 31 L108 31 L108 29 L109 29 L109 26 L108 26 L108 22 L109 22 L109 20 L110 20 L110 18 L112 18 L112 17 L113 17 L113 15 L112 15 L112 16 L111 16 L111 14 L112 14 L112 11 L113 11 L113 9 L115 9 Z M308 34 L317 34 L317 35 L321 35 L321 36 L323 36 L323 37 L324 37 L324 39 L325 39 L325 43 L326 43 L326 51 L327 51 L327 67 L328 67 L328 74 L329 74 L329 79 L330 79 L330 80 L332 80 L332 84 L331 84 L331 85 L330 85 L330 86 L329 86 L329 87 L327 87 L327 88 L323 88 L323 89 L320 89 L320 88 L319 88 L319 87 L318 87 L318 86 L315 86 L315 85 L314 85 L314 84 L313 84 L313 82 L312 82 L312 79 L311 79 L311 73 L310 73 L310 57 L309 57 L309 58 L308 58 L308 59 L307 59 L307 60 L306 60 L306 62 L305 62 L305 63 L304 63 L304 64 L303 64 L303 66 L302 66 L302 67 L301 67 L301 69 L300 69 L300 70 L299 70 L299 72 L298 72 L298 73 L297 73 L297 74 L296 74 L296 76 L295 76 L295 77 L294 77 L294 79 L293 79 L293 80 L292 80 L292 82 L291 82 L291 83 L290 83 L290 85 L289 85 L289 86 L288 86 L288 87 L287 87 L287 89 L286 89 L286 90 L284 90 L284 91 L278 91 L278 90 L276 90 L276 91 L274 91 L274 90 L273 90 L273 89 L272 89 L272 87 L271 87 L271 82 L272 82 L272 74 L273 74 L273 69 L274 69 L274 64 L275 64 L275 59 L276 59 L276 53 L277 53 L277 49 L278 49 L278 44 L279 44 L279 42 L280 42 L280 39 L281 39 L281 38 L282 38 L282 37 L289 37 L289 38 L291 38 L291 39 L292 39 L292 40 L293 40 L293 44 L294 44 L294 51 L295 51 L295 50 L296 50 L296 48 L297 48 L297 47 L298 47 L298 46 L299 46 L299 45 L300 45 L300 44 L301 44 L301 43 L302 43 L302 42 L303 42 L303 41 L304 41 L304 39 L305 39 L305 38 L306 38 L306 37 L307 37 L307 36 L308 36 Z M240 37 L243 37 L243 38 L249 38 L249 39 L251 39 L251 40 L253 40 L253 41 L254 41 L254 42 L255 42 L255 44 L256 44 L256 46 L257 46 L257 48 L258 48 L258 53 L259 53 L259 61 L260 61 L260 67 L261 67 L261 72 L262 72 L262 75 L263 75 L263 78 L264 78 L264 79 L265 79 L265 80 L268 80 L268 82 L267 82 L267 83 L266 83 L266 84 L265 84 L265 86 L264 86 L264 87 L260 87 L260 88 L259 88 L259 89 L257 89 L257 88 L253 88 L253 87 L251 87 L251 86 L250 86 L250 85 L249 85 L249 84 L248 84 L248 83 L247 83 L247 81 L246 81 L246 78 L245 78 L245 75 L244 75 L244 70 L243 70 L243 62 L242 62 L242 56 L240 56 L240 58 L239 58 L239 59 L238 59 L238 60 L237 60 L237 61 L236 61 L236 62 L235 62 L235 64 L234 64 L234 65 L233 65 L233 66 L232 66 L232 68 L231 68 L231 69 L230 69 L230 70 L229 70 L229 71 L228 71 L228 73 L227 73 L227 74 L226 74 L226 76 L225 76 L225 77 L224 77 L224 78 L223 78 L223 80 L222 80 L222 82 L221 82 L221 83 L220 83 L220 84 L219 84 L219 86 L218 86 L218 87 L217 87 L217 88 L216 88 L216 90 L215 90 L215 91 L214 91 L214 92 L213 92 L213 93 L211 93 L211 94 L206 94 L206 93 L205 93 L205 94 L203 94 L203 93 L201 93 L201 92 L200 92 L200 89 L199 89 L199 86 L200 86 L200 78 L201 78 L201 72 L202 72 L202 67 L203 67 L203 63 L204 63 L204 58 L205 58 L205 54 L206 54 L206 49 L207 49 L207 45 L208 45 L208 43 L209 43 L209 42 L210 42 L210 40 L211 40 L211 39 L218 39 L218 40 L220 40 L220 41 L222 41 L222 42 L223 42 L223 53 L224 53 L224 52 L225 52 L225 51 L226 51 L226 49 L227 49 L227 48 L228 48 L228 47 L229 47 L229 46 L230 46 L230 45 L231 45 L231 44 L232 44 L232 43 L233 43 L233 42 L234 42 L234 41 L235 41 L235 40 L236 40 L236 39 L238 39 L238 38 L240 38 Z M154 39 L164 39 L164 40 L166 40 L166 41 L168 41 L168 42 L172 42 L172 43 L173 43 L173 44 L174 44 L174 45 L175 45 L175 47 L176 47 L176 50 L175 50 L175 53 L179 53 L179 54 L181 54 L181 55 L182 55 L182 66 L183 66 L183 69 L184 69 L184 72 L185 72 L185 74 L186 74 L186 76 L187 76 L187 78 L188 78 L188 79 L189 79 L189 80 L192 80 L192 81 L198 81 L198 83 L197 83 L197 84 L196 84 L196 86 L194 86 L194 87 L192 87 L192 88 L190 88 L190 89 L181 89 L181 88 L179 88 L179 87 L177 87 L177 86 L175 86 L175 85 L174 85 L174 84 L173 84 L173 83 L172 83 L172 82 L171 82 L171 80 L170 80 L170 78 L169 78 L169 76 L168 76 L168 74 L167 74 L167 75 L166 75 L166 76 L164 76 L164 77 L163 77 L163 78 L162 78 L162 79 L160 79 L160 80 L159 80 L159 81 L158 81 L158 82 L157 82 L157 83 L155 83 L155 84 L154 84 L154 85 L153 85 L153 86 L151 86 L151 87 L149 87 L149 88 L148 88 L148 89 L146 89 L146 90 L144 90 L144 91 L141 91 L141 92 L132 92 L132 91 L128 91 L128 90 L126 90 L126 89 L125 89 L125 88 L124 88 L124 87 L123 87 L123 85 L122 85 L122 81 L121 81 L121 76 L122 76 L122 73 L123 73 L123 70 L124 70 L124 68 L125 68 L125 66 L126 66 L126 64 L127 64 L127 63 L128 63 L128 61 L129 61 L129 60 L130 60 L130 58 L131 58 L131 57 L132 57 L132 56 L133 56 L133 55 L134 55 L134 53 L135 53 L135 52 L136 52 L136 51 L137 51 L137 50 L138 50 L138 49 L139 49 L139 48 L140 48 L140 47 L141 47 L141 46 L142 46 L142 45 L144 45 L144 44 L145 44 L145 43 L146 43 L146 42 L148 42 L148 41 L150 41 L150 40 L154 40 Z M238 40 L237 40 L237 42 L238 42 Z M41 43 L40 43 L40 45 L39 45 L39 48 L38 48 L38 51 L39 51 L39 50 L40 50 L40 46 L41 46 Z M366 49 L365 49 L365 50 L364 50 L364 51 L363 51 L363 52 L361 52 L361 53 L360 53 L360 54 L359 54 L359 55 L358 55 L358 56 L357 56 L357 57 L356 57 L356 58 L355 58 L355 59 L354 59 L354 61 L353 61 L353 62 L352 62 L352 64 L351 64 L351 66 L350 66 L350 69 L349 69 L349 71 L350 71 L350 70 L352 70 L352 69 L353 69 L353 68 L354 68 L354 67 L356 67 L356 66 L357 66 L357 65 L358 65 L358 64 L359 64 L359 63 L361 63 L361 62 L362 62 L362 61 L363 61 L363 60 L364 60 L364 59 L365 59 L365 58 L366 58 L366 56 L367 56 L367 50 L366 50 Z M160 51 L160 52 L159 52 L159 53 L157 53 L157 54 L156 54 L156 55 L154 55 L154 56 L153 56 L153 57 L152 57 L152 58 L151 58 L151 59 L150 59 L150 60 L149 60 L149 61 L148 61 L148 62 L147 62 L147 63 L146 63 L146 65 L145 65 L145 66 L144 66 L144 67 L143 67 L143 69 L142 69 L142 71 L141 71 L141 73 L140 73 L140 75 L139 75 L139 77 L141 77 L141 76 L142 76 L142 75 L144 75 L144 74 L145 74 L145 73 L146 73 L146 72 L147 72 L147 71 L149 71 L149 70 L150 70 L150 69 L151 69 L151 68 L153 68 L153 67 L154 67 L154 66 L155 66 L155 65 L156 65 L156 64 L157 64 L157 63 L158 63 L158 62 L159 62 L159 61 L160 61 L160 59 L161 59 L161 58 L162 58 L162 57 L163 57 L163 55 L164 55 L164 53 L163 53 L163 52 L162 52 L162 51 Z M38 55 L37 55 L37 56 L36 56 L36 60 L35 60 L35 62 L36 62 L36 61 L37 61 L37 58 L38 58 Z M97 69 L96 69 L96 71 L97 71 Z M96 71 L95 71 L95 73 L96 73 Z M31 76 L31 77 L30 77 L30 82 L31 82 L31 79 L32 79 L32 77 L33 77 L33 76 Z M92 81 L92 84 L91 84 L91 87 L92 87 L92 85 L93 85 L93 83 L94 83 L94 81 Z M30 82 L29 82 L29 85 L28 85 L28 88 L27 88 L27 91 L28 91 L28 90 L29 90 L29 87 L30 87 Z M90 93 L89 93 L89 97 L90 97 Z M288 103 L297 103 L297 104 L300 104 L300 105 L303 105 L303 107 L304 107 L304 109 L303 109 L303 110 L302 110 L302 111 L301 111 L301 112 L300 112 L300 114 L299 114 L299 115 L298 115 L298 116 L297 116 L297 117 L296 117 L296 118 L277 118 L277 116 L278 116 L278 115 L279 115 L279 114 L280 114 L280 113 L281 113 L281 111 L282 111 L282 110 L283 110 L283 109 L285 109 L285 108 L286 108 L286 106 L287 106 L287 105 L288 105 Z M217 107 L220 107 L220 108 L227 108 L227 110 L228 110 L228 113 L229 113 L229 115 L230 115 L230 118 L212 118 L212 116 L211 116 L211 112 L212 112 L212 111 L214 111 L214 109 L215 109 L215 108 L217 108 Z"/></svg>